<?xml version="1.0" encoding="utf-8" standalone="no"?>
<!DOCTYPE svg PUBLIC "-//W3C//DTD SVG 1.1//EN"
  "http://www.w3.org/Graphics/SVG/1.1/DTD/svg11.dtd">
<svg xmlns:xlink="http://www.w3.org/1999/xlink" width="489.6pt" height="288pt" viewBox="0 0 489.6 288" xmlns="http://www.w3.org/2000/svg" version="1.1">
 <metadata>
  <rdf:RDF xmlns:dc="http://purl.org/dc/elements/1.1/" xmlns:cc="http://creativecommons.org/ns#" xmlns:rdf="http://www.w3.org/1999/02/22-rdf-syntax-ns#">
   <cc:Work>
    <dc:type rdf:resource="http://purl.org/dc/dcmitype/StillImage"/>
    <dc:date>2026-09-12T15:24:55.955216</dc:date>
    <dc:format>image/svg+xml</dc:format>
    <dc:creator>
     <cc:Agent>
      <dc:title>Matplotlib v3.11.2, https://matplotlib.org/</dc:title>
     </cc:Agent>
    </dc:creator>
   </cc:Work>
  </rdf:RDF>
 </metadata>
 <defs>
  <style type="text/css">*{stroke-linejoin: round; stroke-linecap: butt}</style>
 </defs>
 <g id="figure_1">
  <g id="patch_1">
   <path d="M 0 288 
L 489.6 288 
L 489.6 0 
L 0 0 
z
" style="fill: #ffffff"/>
  </g>
  <g id="axes_1">
   <g id="patch_2">
    <path d="M 163.734545 236.16 
L 374.825455 236.16 
L 374.825455 20.16 
L 163.734545 20.16 
z
" style="fill: #ffffff"/>
   </g>
   <g id="line2d_1">
    <path d="M 315.916364 135.523636 
L 269.28 135.523636 
M 309.668276 112.205455 
L 269.28 135.523636 
M 309.668276 112.205455 
L 315.916364 135.523636 
M 292.598182 95.135361 
L 269.28 135.523636 
M 292.598182 95.135361 
L 309.668276 112.205455 
M 269.28 88.887273 
L 269.28 135.523636 
M 269.28 88.887273 
L 292.598182 95.135361 
M 245.961818 95.135361 
L 269.28 135.523636 
M 245.961818 95.135361 
L 269.28 88.887273 
M 228.891724 112.205455 
L 269.28 135.523636 
M 228.891724 112.205455 
L 245.961818 95.135361 
M 222.643636 135.523636 
L 269.28 135.523636 
M 222.643636 135.523636 
L 228.891724 112.205455 
M 228.891724 158.841818 
L 269.28 135.523636 
M 228.891724 158.841818 
L 222.643636 135.523636 
M 245.961818 175.911912 
L 269.28 135.523636 
M 245.961818 175.911912 
L 228.891724 158.841818 
M 269.28 182.16 
L 269.28 135.523636 
M 269.28 182.16 
L 245.961818 175.911912 
M 292.598182 175.911912 
L 269.28 135.523636 
M 292.598182 175.911912 
L 269.28 182.16 
M 309.668276 158.841818 
L 269.28 135.523636 
M 309.668276 158.841818 
L 315.916364 135.523636 
M 309.668276 158.841818 
L 292.598182 175.911912 
M 357.951991 111.764048 
L 315.916364 135.523636 
M 357.951991 111.764048 
L 309.668276 112.205455 
M 334.192403 70.611234 
L 309.668276 112.205455 
M 334.192403 70.611234 
L 292.598182 95.135361 
M 334.192403 70.611234 
L 357.951991 111.764048 
M 293.039588 46.851646 
L 292.598182 95.135361 
M 293.039588 46.851646 
L 269.28 88.887273 
M 293.039588 46.851646 
L 334.192403 70.611234 
M 245.520412 46.851646 
L 269.28 88.887273 
M 245.520412 46.851646 
L 245.961818 95.135361 
M 245.520412 46.851646 
L 293.039588 46.851646 
M 204.367597 70.611234 
L 245.961818 95.135361 
M 204.367597 70.611234 
L 228.891724 112.205455 
M 204.367597 70.611234 
L 245.520412 46.851646 
M 180.608009 111.764048 
L 228.891724 112.205455 
M 180.608009 111.764048 
L 222.643636 135.523636 
M 180.608009 111.764048 
L 204.367597 70.611234 
M 180.608009 159.283225 
L 222.643636 135.523636 
M 180.608009 159.283225 
L 228.891724 158.841818 
M 180.608009 159.283225 
L 180.608009 111.764048 
M 204.367597 200.436039 
L 228.891724 158.841818 
M 204.367597 200.436039 
L 245.961818 175.911912 
M 204.367597 200.436039 
L 180.608009 159.283225 
M 245.520412 224.195627 
L 245.961818 175.911912 
M 245.520412 224.195627 
L 269.28 182.16 
M 245.520412 224.195627 
L 204.367597 200.436039 
M 293.039588 224.195627 
L 269.28 182.16 
M 293.039588 224.195627 
L 292.598182 175.911912 
M 293.039588 224.195627 
L 245.520412 224.195627 
M 334.192403 200.436039 
L 292.598182 175.911912 
M 334.192403 200.436039 
L 309.668276 158.841818 
M 334.192403 200.436039 
L 293.039588 224.195627 
M 357.951991 159.283225 
L 315.916364 135.523636 
M 357.951991 159.283225 
L 309.668276 158.841818 
M 357.951991 159.283225 
L 357.951991 111.764048 
M 357.951991 159.283225 
L 334.192403 200.436039 
L 334.192403 200.436039 
" clip-path="url(#pd0fb7b8cbd)" style="fill: none; stroke: #becbd0; stroke-width: 0.8; stroke-linecap: square"/>
   </g>
   <g id="patch_3">
    <path d="M 269.28 223.887273 
C 292.71431 223.887273 315.191967 214.576723 331.762526 198.006163 
C 348.333086 181.435603 357.643636 158.957947 357.643636 135.523636 
C 357.643636 112.089326 348.333086 89.61167 331.762526 73.04111 
C 315.191967 56.47055 292.71431 47.16 269.28 47.16 
C 245.84569 47.16 223.368033 56.47055 206.797474 73.04111 
C 190.226914 89.61167 180.916364 112.089326 180.916364 135.523636 
C 180.916364 158.957947 190.226914 181.435603 206.797474 198.006163 
C 223.368033 214.576723 245.84569 223.887273 269.28 223.887273 
L 269.28 223.887273 
z
" clip-path="url(#pd0fb7b8cbd)" style="fill: none; stroke-dasharray: 4.625,2; stroke-dashoffset: 0; stroke: #b65f35; stroke-width: 1.25; stroke-linejoin: miter"/>
   </g>
   <g id="patch_4">
    <path d="M 309.668276 112.205455 
L 292.598182 95.135361 
L 334.192403 70.611234 
z
" clip-path="url(#pd0fb7b8cbd)" style="fill: #dfeef0; stroke: #227d8d; stroke-width: 1.6; stroke-linejoin: miter"/>
   </g>
   <g id="matplotlib.axis_1">
    <g id="xtick_1">
     <g id="line2d_2">
      <defs>
       <path id="m19abf8b2cd" d="M 0 0 
L 0 3.5 
" style="stroke: #000000; stroke-width: 0.8"/>
      </defs>
      <g>
       <use xlink:href="#m19abf8b2cd" x="171.098182" y="236.16" style="stroke: #000000; stroke-width: 0.8"/>
      </g>
     </g>
     <g id="text_1">
      <text style="font-size: 10px; font-family: 'Alibaba PuHuiTi', 'DejaVu Sans', sans-serif; text-anchor: middle" x="171.098182" y="251.66" transform="rotate(-0 171.098182 251.66)">-2000</text>
     </g>
    </g>
    <g id="xtick_2">
     <g id="line2d_3">
      <g>
       <use xlink:href="#m19abf8b2cd" x="220.189091" y="236.16" style="stroke: #000000; stroke-width: 0.8"/>
      </g>
     </g>
     <g id="text_2">
      <text style="font-size: 10px; font-family: 'Alibaba PuHuiTi', 'DejaVu Sans', sans-serif; text-anchor: middle" x="220.189091" y="251.66" transform="rotate(-0 220.189091 251.66)">-1000</text>
     </g>
    </g>
    <g id="xtick_3">
     <g id="line2d_4">
      <g>
       <use xlink:href="#m19abf8b2cd" x="269.28" y="236.16" style="stroke: #000000; stroke-width: 0.8"/>
      </g>
     </g>
     <g id="text_3">
      <text style="font-size: 10px; font-family: 'Alibaba PuHuiTi', 'DejaVu Sans', sans-serif; text-anchor: middle" x="269.28" y="251.66" transform="rotate(-0 269.28 251.66)">0</text>
     </g>
    </g>
    <g id="xtick_4">
     <g id="line2d_5">
      <g>
       <use xlink:href="#m19abf8b2cd" x="318.370909" y="236.16" style="stroke: #000000; stroke-width: 0.8"/>
      </g>
     </g>
     <g id="text_4">
      <text style="font-size: 10px; font-family: 'Alibaba PuHuiTi', 'DejaVu Sans', sans-serif; text-anchor: middle" x="318.370909" y="251.66" transform="rotate(-0 318.370909 251.66)">1000</text>
     </g>
    </g>
    <g id="xtick_5">
     <g id="line2d_6">
      <g>
       <use xlink:href="#m19abf8b2cd" x="367.461818" y="236.16" style="stroke: #000000; stroke-width: 0.8"/>
      </g>
     </g>
     <g id="text_5">
      <text style="font-size: 10px; font-family: 'Alibaba PuHuiTi', 'DejaVu Sans', sans-serif; text-anchor: middle" x="367.461818" y="251.66" transform="rotate(-0 367.461818 251.66)">2000</text>
     </g>
    </g>
    <g id="text_6">
     <text style="font-size: 10px; font-family: 'Alibaba PuHuiTi', 'DejaVu Sans', sans-serif; text-anchor: middle" x="269.28" y="265.66" transform="rotate(-0 269.28 265.66)">x (m)</text>
    </g>
   </g>
   <g id="matplotlib.axis_2">
    <g id="ytick_1">
     <g id="line2d_7">
      <defs>
       <path id="me16f4e7237" d="M 0 0 
L -3.5 0 
" style="stroke: #000000; stroke-width: 0.8"/>
      </defs>
      <g>
       <use xlink:href="#me16f4e7237" x="163.734545" y="233.705455" style="stroke: #000000; stroke-width: 0.8"/>
      </g>
     </g>
     <g id="text_7">
      <text style="font-size: 10px; font-family: 'Alibaba PuHuiTi', 'DejaVu Sans', sans-serif; text-anchor: end" x="156.734545" y="237.955455" transform="rotate(-0 156.734545 237.955455)">-2000</text>
     </g>
    </g>
    <g id="ytick_2">
     <g id="line2d_8">
      <g>
       <use xlink:href="#me16f4e7237" x="163.734545" y="209.16" style="stroke: #000000; stroke-width: 0.8"/>
      </g>
     </g>
     <g id="text_8">
      <text style="font-size: 10px; font-family: 'Alibaba PuHuiTi', 'DejaVu Sans', sans-serif; text-anchor: end" x="156.734545" y="213.41" transform="rotate(-0 156.734545 213.41)">-1500</text>
     </g>
    </g>
    <g id="ytick_3">
     <g id="line2d_9">
      <g>
       <use xlink:href="#me16f4e7237" x="163.734545" y="184.614545" style="stroke: #000000; stroke-width: 0.8"/>
      </g>
     </g>
     <g id="text_9">
      <text style="font-size: 10px; font-family: 'Alibaba PuHuiTi', 'DejaVu Sans', sans-serif; text-anchor: end" x="156.734545" y="188.864545" transform="rotate(-0 156.734545 188.864545)">-1000</text>
     </g>
    </g>
    <g id="ytick_4">
     <g id="line2d_10">
      <g>
       <use xlink:href="#me16f4e7237" x="163.734545" y="160.069091" style="stroke: #000000; stroke-width: 0.8"/>
      </g>
     </g>
     <g id="text_10">
      <text style="font-size: 10px; font-family: 'Alibaba PuHuiTi', 'DejaVu Sans', sans-serif; text-anchor: end" x="156.734545" y="164.319091" transform="rotate(-0 156.734545 164.319091)">-500</text>
     </g>
    </g>
    <g id="ytick_5">
     <g id="line2d_11">
      <g>
       <use xlink:href="#me16f4e7237" x="163.734545" y="135.523636" style="stroke: #000000; stroke-width: 0.8"/>
      </g>
     </g>
     <g id="text_11">
      <text style="font-size: 10px; font-family: 'Alibaba PuHuiTi', 'DejaVu Sans', sans-serif; text-anchor: end" x="156.734545" y="139.773636" transform="rotate(-0 156.734545 139.773636)">0</text>
     </g>
    </g>
    <g id="ytick_6">
     <g id="line2d_12">
      <g>
       <use xlink:href="#me16f4e7237" x="163.734545" y="110.978182" style="stroke: #000000; stroke-width: 0.8"/>
      </g>
     </g>
     <g id="text_12">
      <text style="font-size: 10px; font-family: 'Alibaba PuHuiTi', 'DejaVu Sans', sans-serif; text-anchor: end" x="156.734545" y="115.228182" transform="rotate(-0 156.734545 115.228182)">500</text>
     </g>
    </g>
    <g id="ytick_7">
     <g id="line2d_13">
      <g>
       <use xlink:href="#me16f4e7237" x="163.734545" y="86.432727" style="stroke: #000000; stroke-width: 0.8"/>
      </g>
     </g>
     <g id="text_13">
      <text style="font-size: 10px; font-family: 'Alibaba PuHuiTi', 'DejaVu Sans', sans-serif; text-anchor: end" x="156.734545" y="90.682727" transform="rotate(-0 156.734545 90.682727)">1000</text>
     </g>
    </g>
    <g id="ytick_8">
     <g id="line2d_14">
      <g>
       <use xlink:href="#me16f4e7237" x="163.734545" y="61.887273" style="stroke: #000000; stroke-width: 0.8"/>
      </g>
     </g>
     <g id="text_14">
      <text style="font-size: 10px; font-family: 'Alibaba PuHuiTi', 'DejaVu Sans', sans-serif; text-anchor: end" x="156.734545" y="66.137273" transform="rotate(-0 156.734545 66.137273)">1500</text>
     </g>
    </g>
    <g id="ytick_9">
     <g id="line2d_15">
      <g>
       <use xlink:href="#me16f4e7237" x="163.734545" y="37.341818" style="stroke: #000000; stroke-width: 0.8"/>
      </g>
     </g>
     <g id="text_15">
      <text style="font-size: 10px; font-family: 'Alibaba PuHuiTi', 'DejaVu Sans', sans-serif; text-anchor: end" x="156.734545" y="41.591818" transform="rotate(-0 156.734545 41.591818)">2000</text>
     </g>
    </g>
    <g id="text_16">
     <text style="font-size: 10px; font-family: 'Alibaba PuHuiTi', 'DejaVu Sans', sans-serif; text-anchor: middle" x="123.334545" y="128.16" transform="rotate(-90 123.334545 128.16)">y (m)</text>
    </g>
   </g>
   <g id="line2d_16"/>
   <g id="patch_5">
    <path d="M 163.734545 236.16 
L 163.734545 20.16 
" style="fill: none; stroke: #000000; stroke-width: 0.7; stroke-linejoin: miter; stroke-linecap: square"/>
   </g>
   <g id="patch_6">
    <path d="M 163.734545 236.16 
L 374.825455 236.16 
" style="fill: none; stroke: #000000; stroke-width: 0.7; stroke-linejoin: miter; stroke-linecap: square"/>
   </g>
   <g id="text_17">
    <text style="font-size: 8px; font-family: 'Alibaba PuHuiTi', 'DejaVu Sans', sans-serif; text-anchor: start" x="168.643636" y="31.941818" transform="rotate(-0 168.643636 31.941818)">36个三角形；最长边983.60 m；外包内切半径1806.28 m</text>
   </g>
   <g id="PathCollection_1">
    <defs>
     <path id="m9d6998762d" d="M 0 2.397916 
C 0.635935 2.397916 1.245909 2.145256 1.695582 1.695582 
C 2.145256 1.245909 2.397916 0.635935 2.397916 0 
C 2.397916 -0.635935 2.145256 -1.245909 1.695582 -1.695582 
C 1.245909 -2.145256 0.635935 -2.397916 0 -2.397916 
C -0.635935 -2.397916 -1.245909 -2.145256 -1.695582 -1.695582 
C -2.145256 -1.245909 -2.397916 -0.635935 -2.397916 0 
C -2.397916 0.635935 -2.145256 1.245909 -1.695582 1.695582 
C -1.245909 2.145256 -0.635935 2.397916 0 2.397916 
z
" style="stroke: #227d8d"/>
    </defs>
    <g clip-path="url(#pd0fb7b8cbd)">
     <use xlink:href="#m9d6998762d" x="269.28" y="135.523636" style="fill: #227d8d; stroke: #227d8d"/>
     <use xlink:href="#m9d6998762d" x="315.916364" y="135.523636" style="fill: #227d8d; stroke: #227d8d"/>
     <use xlink:href="#m9d6998762d" x="309.668276" y="112.205455" style="fill: #227d8d; stroke: #227d8d"/>
     <use xlink:href="#m9d6998762d" x="292.598182" y="95.135361" style="fill: #227d8d; stroke: #227d8d"/>
     <use xlink:href="#m9d6998762d" x="269.28" y="88.887273" style="fill: #227d8d; stroke: #227d8d"/>
     <use xlink:href="#m9d6998762d" x="245.961818" y="95.135361" style="fill: #227d8d; stroke: #227d8d"/>
     <use xlink:href="#m9d6998762d" x="228.891724" y="112.205455" style="fill: #227d8d; stroke: #227d8d"/>
     <use xlink:href="#m9d6998762d" x="222.643636" y="135.523636" style="fill: #227d8d; stroke: #227d8d"/>
     <use xlink:href="#m9d6998762d" x="228.891724" y="158.841818" style="fill: #227d8d; stroke: #227d8d"/>
     <use xlink:href="#m9d6998762d" x="245.961818" y="175.911912" style="fill: #227d8d; stroke: #227d8d"/>
     <use xlink:href="#m9d6998762d" x="269.28" y="182.16" style="fill: #227d8d; stroke: #227d8d"/>
     <use xlink:href="#m9d6998762d" x="292.598182" y="175.911912" style="fill: #227d8d; stroke: #227d8d"/>
     <use xlink:href="#m9d6998762d" x="309.668276" y="158.841818" style="fill: #227d8d; stroke: #227d8d"/>
     <use xlink:href="#m9d6998762d" x="357.951991" y="111.764048" style="fill: #227d8d; stroke: #227d8d"/>
     <use xlink:href="#m9d6998762d" x="334.192403" y="70.611234" style="fill: #227d8d; stroke: #227d8d"/>
     <use xlink:href="#m9d6998762d" x="293.039588" y="46.851646" style="fill: #227d8d; stroke: #227d8d"/>
     <use xlink:href="#m9d6998762d" x="245.520412" y="46.851646" style="fill: #227d8d; stroke: #227d8d"/>
     <use xlink:href="#m9d6998762d" x="204.367597" y="70.611234" style="fill: #227d8d; stroke: #227d8d"/>
     <use xlink:href="#m9d6998762d" x="180.608009" y="111.764048" style="fill: #227d8d; stroke: #227d8d"/>
     <use xlink:href="#m9d6998762d" x="180.608009" y="159.283225" style="fill: #227d8d; stroke: #227d8d"/>
     <use xlink:href="#m9d6998762d" x="204.367597" y="200.436039" style="fill: #227d8d; stroke: #227d8d"/>
     <use xlink:href="#m9d6998762d" x="245.520412" y="224.195627" style="fill: #227d8d; stroke: #227d8d"/>
     <use xlink:href="#m9d6998762d" x="293.039588" y="224.195627" style="fill: #227d8d; stroke: #227d8d"/>
     <use xlink:href="#m9d6998762d" x="334.192403" y="200.436039" style="fill: #227d8d; stroke: #227d8d"/>
     <use xlink:href="#m9d6998762d" x="357.951991" y="159.283225" style="fill: #227d8d; stroke: #227d8d"/>
    </g>
   </g>
  </g>
 </g>
 <defs>
  <clipPath id="pd0fb7b8cbd">
   <rect x="163.734545" y="20.16" width="211.090909" height="216"/>
  </clipPath>
 </defs>
</svg>
